<svg width="60" height="60" viewBox="0 0 60 60" fill="none" xmlns="http://www.w3.org/2000/svg">
<g clip-path="url(#clip0_16_8511)">
<path d="M30 52.5C42.4264 52.5 52.5 42.4264 52.5 30C52.5 17.5736 42.4264 7.5 30 7.5C17.5736 7.5 7.5 17.5736 7.5 30C7.5 42.4264 17.5736 52.5 30 52.5Z" stroke="#033864" stroke-width="2" stroke-linecap="round" stroke-linejoin="round"/>
<path d="M39.375 30C39.375 45 30 52.5 30 52.5C30 52.5 20.625 45 20.625 30C20.625 15 30 7.5 30 7.5C30 7.5 39.375 15 39.375 30Z" stroke="#033864" stroke-width="2" stroke-linecap="round" stroke-linejoin="round"/>
<path d="M8.7793 22.5H51.2199" stroke="#033864" stroke-width="2" stroke-linecap="round" stroke-linejoin="round"/>
<path d="M8.7793 37.5H51.2199" stroke="#033864" stroke-width="2" stroke-linecap="round" stroke-linejoin="round"/>
</g>
<defs>
<clipPath id="clip0_16_8511">
<rect width="60" height="60" fill="white"/>
</clipPath>
</defs>
</svg>
