<svg width="423" height="424" viewBox="0 0 423 424" fill="none" xmlns="http://www.w3.org/2000/svg">
<path d="M344.534 137.689C314.387 156.595 274.306 189.159 252.733 235.645C275.189 235.088 296.808 234.095 316.738 229.858C334.049 226.178 349.6 220.135 362.794 210.053C362.685 185.412 356.713 160.548 344.534 137.689Z" fill="#08ADEE"/>
<path d="M360.605 236.79C348.312 243.401 335.056 247.749 321.397 250.651C296.243 255.996 268.919 256.571 243.078 257.115L243.047 257.116C241.078 257.158 239.117 257.199 237.166 257.242C179.27 258.525 129.39 290.06 99.2477 315.132C109.178 325.519 120.293 334.285 132.211 341.367C149.756 325.127 180.142 304.707 216.948 299.375C232.134 297.175 246.111 296.754 259.096 296.646C262.1 296.62 265.025 296.611 267.89 296.602L267.902 296.602C277.609 296.572 286.622 296.544 295.654 295.901C312.08 294.733 328.042 291.548 345.228 282.343C352.752 268.022 357.91 252.629 360.605 236.79Z" fill="#08ADEE"/>
<path d="M323.882 313.184C315.029 315.311 306.299 316.47 297.57 317.098C287.736 317.806 277.752 317.844 267.898 317.882C265.131 317.893 262.374 317.903 259.633 317.929C246.933 318.046 234.055 318.469 220.261 320.479C192.367 324.541 168.38 338.989 152.788 351.797C200.236 371.097 255.952 366.409 300.158 334.437C308.958 328.072 316.874 320.936 323.882 313.184Z" fill="#08ADEE"/>
<path d="M78.1866 286.009C108.333 267.103 148.414 234.539 169.987 188.053C147.532 188.61 125.912 189.603 105.983 193.841C88.6717 197.521 73.121 203.564 59.9271 213.646C60.0355 238.286 66.0075 263.15 78.1866 286.009Z" fill="#08ADEE"/>
<path d="M62.1158 186.909C74.409 180.298 87.6649 175.95 101.324 173.048C126.478 167.703 153.802 167.128 179.643 166.584L179.673 166.584C181.643 166.542 183.604 166.501 185.555 166.457C243.451 165.174 293.331 133.639 323.473 108.568C313.542 98.1806 302.428 89.4145 290.509 82.3326C272.965 98.5719 242.579 118.992 205.772 124.324C190.587 126.525 176.609 126.945 163.625 127.054C160.621 127.079 157.696 127.088 154.831 127.097L154.819 127.097C145.112 127.127 136.099 127.155 127.066 127.798C110.641 128.967 94.6783 132.151 77.4928 141.356C69.9689 155.677 64.8108 171.07 62.1158 186.909Z" fill="#08ADEE"/>
<path d="M98.8386 110.515C107.692 108.388 116.422 107.229 125.151 106.601C134.984 105.893 144.969 105.855 154.822 105.817C157.589 105.807 160.347 105.796 163.088 105.771C175.788 105.653 188.665 105.23 202.46 103.221C230.354 99.1582 254.34 84.7099 269.932 71.9022C222.485 52.6021 166.768 57.2907 122.562 89.2624C113.762 95.627 105.846 102.763 98.8386 110.515Z" fill="#08ADEE"/>
</svg>
