<svg width="160" height="160" viewBox="0 0 160 160" fill="none" xmlns="http://www.w3.org/2000/svg">
<g filter="url(#filter0_b_16_8449)">
<path d="M0 80C0 36.0013 35.668 0 79.6667 0C123.665 0 159.333 36.0013 159.333 80C159.333 123.999 123.665 160 79.6667 160C35.668 160 0 123.999 0 80Z" fill="#033864" fill-opacity="0.05"/>
</g>
<path d="M78.9988 58.4697C76.0335 58.4697 73.6296 56.0658 73.6296 53.1005C73.6296 50.1351 76.0335 47.7312 78.9988 47.7312C81.9641 47.7312 84.368 50.1351 84.368 53.1005C84.368 56.0658 81.9641 58.4697 78.9988 58.4697ZM78.9988 58.4697C75.0969 58.4697 71.934 61.6327 71.934 65.5344H86.0637C86.0636 61.6327 82.9007 58.4697 78.9988 58.4697ZM94.1926 66.2851C102.393 56.1212 104.574 44.2869 98.8074 38.3724C92.3065 31.7045 78.1678 35.0866 67.2278 45.9266C56.2879 56.7667 52.6892 70.9597 59.1902 77.6277C65.0194 83.6066 76.989 81.5039 87.2876 73.1907M59.1902 38.3724C65.6911 31.7045 79.8298 35.0866 90.7698 45.9266C101.71 56.7667 105.308 70.9597 98.8074 77.6277C92.3064 84.2957 78.1678 80.9135 67.2278 70.0735C56.2878 59.2335 52.6892 45.0404 59.1902 38.3724Z" stroke="#232323" stroke-width="1.5" stroke-miterlimit="10" stroke-linecap="round" stroke-linejoin="round"/>
<path d="M38.5762 98.192C38.5762 98.7573 38.4429 99.2907 38.1762 99.792C37.9095 100.293 37.4829 100.704 36.8962 101.024C36.3095 101.333 35.5575 101.488 34.6402 101.488H32.6242V106H30.8002V94.88H34.6402C35.4935 94.88 36.2135 95.0293 36.8002 95.328C37.3975 95.616 37.8402 96.0107 38.1282 96.512C38.4269 97.0133 38.5762 97.5733 38.5762 98.192ZM34.6402 100C35.3335 100 35.8509 99.8453 36.1922 99.536C36.5335 99.216 36.7042 98.768 36.7042 98.192C36.7042 96.976 36.0162 96.368 34.6402 96.368H32.6242V100H34.6402ZM48.0758 101.376C48.0758 101.707 48.0545 102.005 48.0118 102.272H41.2758C41.3292 102.976 41.5905 103.541 42.0598 103.968C42.5292 104.395 43.1052 104.608 43.7878 104.608C44.7692 104.608 45.4625 104.197 45.8678 103.376H47.8358C47.5692 104.187 47.0838 104.853 46.3798 105.376C45.6865 105.888 44.8225 106.144 43.7878 106.144C42.9452 106.144 42.1878 105.957 41.5158 105.584C40.8545 105.2 40.3318 104.667 39.9478 103.984C39.5745 103.291 39.3878 102.491 39.3878 101.584C39.3878 100.677 39.5692 99.8827 39.9318 99.2C40.3052 98.5067 40.8225 97.9733 41.4838 97.6C42.1558 97.2267 42.9238 97.04 43.7878 97.04C44.6198 97.04 45.3612 97.2213 46.0118 97.584C46.6625 97.9467 47.1692 98.4587 47.5318 99.12C47.8945 99.7707 48.0758 100.523 48.0758 101.376ZM46.1718 100.8C46.1612 100.128 45.9212 99.5893 45.4518 99.184C44.9825 98.7787 44.4012 98.576 43.7078 98.576C43.0785 98.576 42.5398 98.7787 42.0918 99.184C41.6438 99.5787 41.3772 100.117 41.2918 100.8H46.1718ZM51.3748 98.464C51.6415 98.016 51.9935 97.6693 52.4308 97.424C52.8788 97.168 53.4068 97.04 54.0148 97.04V98.928H53.5508C52.8362 98.928 52.2922 99.1093 51.9188 99.472C51.5562 99.8347 51.3748 100.464 51.3748 101.36V106H49.5508V97.184H51.3748V98.464ZM58.5715 106.144C57.8781 106.144 57.2541 106.021 56.6995 105.776C56.1555 105.52 55.7235 105.179 55.4035 104.752C55.0835 104.315 54.9128 103.829 54.8915 103.296H56.7795C56.8115 103.669 56.9875 103.984 57.3075 104.24C57.6381 104.485 58.0488 104.608 58.5395 104.608C59.0515 104.608 59.4461 104.512 59.7235 104.32C60.0115 104.117 60.1555 103.861 60.1555 103.552C60.1555 103.221 59.9955 102.976 59.6755 102.816C59.3661 102.656 58.8701 102.48 58.1875 102.288C57.5261 102.107 56.9875 101.931 56.5715 101.76C56.1555 101.589 55.7928 101.328 55.4835 100.976C55.1848 100.624 55.0355 100.16 55.0355 99.584C55.0355 99.1147 55.1741 98.688 55.4515 98.304C55.7288 97.9093 56.1235 97.6 56.6355 97.376C57.1581 97.152 57.7555 97.04 58.4275 97.04C59.4301 97.04 60.2355 97.296 60.8435 97.808C61.4621 98.3093 61.7928 98.9973 61.8355 99.872H60.0115C59.9795 99.4773 59.8195 99.1627 59.5315 98.928C59.2435 98.6933 58.8541 98.576 58.3635 98.576C57.8835 98.576 57.5155 98.6667 57.2595 98.848C57.0035 99.0293 56.8755 99.2693 56.8755 99.568C56.8755 99.8027 56.9608 100 57.1315 100.16C57.3021 100.32 57.5101 100.448 57.7555 100.544C58.0008 100.629 58.3635 100.741 58.8435 100.88C59.4835 101.051 60.0061 101.227 60.4115 101.408C60.8275 101.579 61.1848 101.835 61.4835 102.176C61.7821 102.517 61.9368 102.971 61.9475 103.536C61.9475 104.037 61.8088 104.485 61.5315 104.88C61.2541 105.275 60.8595 105.584 60.3475 105.808C59.8461 106.032 59.2541 106.144 58.5715 106.144ZM67.4223 106.144C66.5903 106.144 65.8383 105.957 65.1663 105.584C64.4943 105.2 63.9663 104.667 63.5823 103.984C63.1983 103.291 63.0063 102.491 63.0063 101.584C63.0063 100.688 63.2037 99.8933 63.5983 99.2C63.993 98.5067 64.5317 97.9733 65.2143 97.6C65.897 97.2267 66.6597 97.04 67.5023 97.04C68.345 97.04 69.1077 97.2267 69.7903 97.6C70.473 97.9733 71.0117 98.5067 71.4063 99.2C71.801 99.8933 71.9983 100.688 71.9983 101.584C71.9983 102.48 71.7957 103.275 71.3903 103.968C70.985 104.661 70.4303 105.2 69.7263 105.584C69.033 105.957 68.265 106.144 67.4223 106.144ZM67.4223 104.56C67.8917 104.56 68.329 104.448 68.7343 104.224C69.1503 104 69.4863 103.664 69.7423 103.216C69.9983 102.768 70.1263 102.224 70.1263 101.584C70.1263 100.944 70.0037 100.405 69.7583 99.968C69.513 99.52 69.1877 99.184 68.7823 98.96C68.377 98.736 67.9397 98.624 67.4703 98.624C67.001 98.624 66.5637 98.736 66.1583 98.96C65.7637 99.184 65.449 99.52 65.2143 99.968C64.9797 100.405 64.8623 100.944 64.8623 101.584C64.8623 102.533 65.1023 103.269 65.5823 103.792C66.073 104.304 66.6863 104.56 67.4223 104.56ZM77.9295 97.04C78.6228 97.04 79.2415 97.184 79.7855 97.472C80.3401 97.76 80.7721 98.1867 81.0815 98.752C81.3908 99.3173 81.5455 100 81.5455 100.8V106H79.7375V101.072C79.7375 100.283 79.5401 99.68 79.1455 99.264C78.7508 98.8373 78.2121 98.624 77.5295 98.624C76.8468 98.624 76.3028 98.8373 75.8975 99.264C75.5028 99.68 75.3055 100.283 75.3055 101.072V106H73.4815V97.184H75.3055V98.192C75.6041 97.8293 75.9828 97.5467 76.4415 97.344C76.9108 97.1413 77.4068 97.04 77.9295 97.04ZM82.9441 101.552C82.9441 100.667 83.1254 99.8827 83.4881 99.2C83.8614 98.5173 84.3628 97.9893 84.9921 97.616C85.6321 97.232 86.3361 97.04 87.1041 97.04C87.7974 97.04 88.4001 97.1787 88.9121 97.456C89.4348 97.7227 89.8508 98.0587 90.1601 98.464V97.184H92.0001V106H90.1601V104.688C89.8508 105.104 89.4294 105.451 88.8961 105.728C88.3628 106.005 87.7548 106.144 87.0721 106.144C86.3148 106.144 85.6214 105.952 84.9921 105.568C84.3628 105.173 83.8614 104.629 83.4881 103.936C83.1254 103.232 82.9441 102.437 82.9441 101.552ZM90.1601 101.584C90.1601 100.976 90.0321 100.448 89.7761 100C89.5308 99.552 89.2054 99.2107 88.8001 98.976C88.3948 98.7413 87.9574 98.624 87.4881 98.624C87.0188 98.624 86.5814 98.7413 86.1761 98.976C85.7708 99.2 85.4401 99.536 85.1841 99.984C84.9388 100.421 84.8161 100.944 84.8161 101.552C84.8161 102.16 84.9388 102.693 85.1841 103.152C85.4401 103.611 85.7708 103.963 86.1761 104.208C86.5921 104.443 87.0294 104.56 87.4881 104.56C87.9574 104.56 88.3948 104.443 88.8001 104.208C89.2054 103.973 89.5308 103.632 89.7761 103.184C90.0321 102.725 90.1601 102.192 90.1601 101.584ZM95.8998 94.16V106H94.0758V94.16H95.8998ZM98.9026 96.016C98.5719 96.016 98.2946 95.904 98.0706 95.68C97.8466 95.456 97.7346 95.1787 97.7346 94.848C97.7346 94.5173 97.8466 94.24 98.0706 94.016C98.2946 93.792 98.5719 93.68 98.9026 93.68C99.2226 93.68 99.4946 93.792 99.7186 94.016C99.9426 94.24 100.055 94.5173 100.055 94.848C100.055 95.1787 99.9426 95.456 99.7186 95.68C99.4946 95.904 99.2226 96.016 98.9026 96.016ZM99.7986 97.184V106H97.9746V97.184H99.7986ZM105.073 106.144C104.38 106.144 103.756 106.021 103.201 105.776C102.657 105.52 102.225 105.179 101.905 104.752C101.585 104.315 101.415 103.829 101.393 103.296H103.281C103.313 103.669 103.489 103.984 103.809 104.24C104.14 104.485 104.551 104.608 105.041 104.608C105.553 104.608 105.948 104.512 106.225 104.32C106.513 104.117 106.657 103.861 106.657 103.552C106.657 103.221 106.497 102.976 106.177 102.816C105.868 102.656 105.372 102.48 104.689 102.288C104.028 102.107 103.489 101.931 103.073 101.76C102.657 101.589 102.295 101.328 101.985 100.976C101.687 100.624 101.537 100.16 101.537 99.584C101.537 99.1147 101.676 98.688 101.953 98.304C102.231 97.9093 102.625 97.6 103.137 97.376C103.66 97.152 104.257 97.04 104.929 97.04C105.932 97.04 106.737 97.296 107.345 97.808C107.964 98.3093 108.295 98.9973 108.337 99.872H106.513C106.481 99.4773 106.321 99.1627 106.033 98.928C105.745 98.6933 105.356 98.576 104.865 98.576C104.385 98.576 104.017 98.6667 103.761 98.848C103.505 99.0293 103.377 99.2693 103.377 99.568C103.377 99.8027 103.463 100 103.633 100.16C103.804 100.32 104.012 100.448 104.257 100.544C104.503 100.629 104.865 100.741 105.345 100.88C105.985 101.051 106.508 101.227 106.913 101.408C107.329 101.579 107.687 101.835 107.985 102.176C108.284 102.517 108.439 102.971 108.449 103.536C108.449 104.037 108.311 104.485 108.033 104.88C107.756 105.275 107.361 105.584 106.849 105.808C106.348 106.032 105.756 106.144 105.073 106.144ZM118.18 101.376C118.18 101.707 118.159 102.005 118.116 102.272H111.38C111.434 102.976 111.695 103.541 112.164 103.968C112.634 104.395 113.21 104.608 113.892 104.608C114.874 104.608 115.567 104.197 115.972 103.376H117.94C117.674 104.187 117.188 104.853 116.484 105.376C115.791 105.888 114.927 106.144 113.892 106.144C113.05 106.144 112.292 105.957 111.62 105.584C110.959 105.2 110.436 104.667 110.052 103.984C109.679 103.291 109.492 102.491 109.492 101.584C109.492 100.677 109.674 99.8827 110.036 99.2C110.41 98.5067 110.927 97.9733 111.588 97.6C112.26 97.2267 113.028 97.04 113.892 97.04C114.724 97.04 115.466 97.2213 116.116 97.584C116.767 97.9467 117.274 98.4587 117.636 99.12C117.999 99.7707 118.18 100.523 118.18 101.376ZM116.276 100.8C116.266 100.128 116.026 99.5893 115.556 99.184C115.087 98.7787 114.506 98.576 113.812 98.576C113.183 98.576 112.644 98.7787 112.196 99.184C111.748 99.5787 111.482 100.117 111.396 100.8H116.276ZM119.047 101.552C119.047 100.667 119.229 99.8827 119.591 99.2C119.965 98.5173 120.466 97.9893 121.095 97.616C121.735 97.232 122.445 97.04 123.223 97.04C123.799 97.04 124.365 97.168 124.919 97.424C125.485 97.6693 125.933 98 126.263 98.416V94.16H128.103V106H126.263V104.672C125.965 105.099 125.549 105.451 125.015 105.728C124.493 106.005 123.89 106.144 123.207 106.144C122.439 106.144 121.735 105.952 121.095 105.568C120.466 105.173 119.965 104.629 119.591 103.936C119.229 103.232 119.047 102.437 119.047 101.552ZM126.263 101.584C126.263 100.976 126.135 100.448 125.879 100C125.634 99.552 125.309 99.2107 124.903 98.976C124.498 98.7413 124.061 98.624 123.591 98.624C123.122 98.624 122.685 98.7413 122.279 98.976C121.874 99.2 121.543 99.536 121.287 99.984C121.042 100.421 120.919 100.944 120.919 101.552C120.919 102.16 121.042 102.693 121.287 103.152C121.543 103.611 121.874 103.963 122.279 104.208C122.695 104.443 123.133 104.56 123.591 104.56C124.061 104.56 124.498 104.443 124.903 104.208C125.309 103.973 125.634 103.632 125.879 103.184C126.135 102.725 126.263 102.192 126.263 101.584ZM58.5053 112.88V124H56.6813V116.384L53.2893 124H52.0253L48.6173 116.384V124H46.7933V112.88H48.7613L52.6653 121.6L56.5533 112.88H58.5053ZM59.9747 119.552C59.9747 118.667 60.156 117.883 60.5187 117.2C60.892 116.517 61.3934 115.989 62.0227 115.616C62.6627 115.232 63.3667 115.04 64.1347 115.04C64.828 115.04 65.4307 115.179 65.9427 115.456C66.4654 115.723 66.8814 116.059 67.1907 116.464V115.184H69.0307V124H67.1907V122.688C66.8814 123.104 66.46 123.451 65.9267 123.728C65.3934 124.005 64.7854 124.144 64.1027 124.144C63.3454 124.144 62.652 123.952 62.0227 123.568C61.3934 123.173 60.892 122.629 60.5187 121.936C60.156 121.232 59.9747 120.437 59.9747 119.552ZM67.1907 119.584C67.1907 118.976 67.0627 118.448 66.8067 118C66.5614 117.552 66.236 117.211 65.8307 116.976C65.4254 116.741 64.988 116.624 64.5187 116.624C64.0494 116.624 63.612 116.741 63.2067 116.976C62.8014 117.2 62.4707 117.536 62.2147 117.984C61.9694 118.421 61.8467 118.944 61.8467 119.552C61.8467 120.16 61.9694 120.693 62.2147 121.152C62.4707 121.611 62.8014 121.963 63.2067 122.208C63.6227 122.443 64.06 122.56 64.5187 122.56C64.988 122.56 65.4254 122.443 65.8307 122.208C66.236 121.973 66.5614 121.632 66.8067 121.184C67.0627 120.725 67.1907 120.192 67.1907 119.584ZM73.2345 116.672V121.552C73.2345 121.883 73.3091 122.123 73.4585 122.272C73.6185 122.411 73.8851 122.48 74.2585 122.48H75.3785V124H73.9385C73.1171 124 72.4878 123.808 72.0505 123.424C71.6131 123.04 71.3945 122.416 71.3945 121.552V116.672H70.3545V115.184H71.3945V112.992H73.2345V115.184H75.3785V116.672H73.2345ZM76.1316 119.584C76.1316 118.677 76.3129 117.883 76.6756 117.2C77.0489 116.507 77.5609 115.973 78.2116 115.6C78.8623 115.227 79.6089 115.04 80.4516 115.04C81.5183 115.04 82.3983 115.296 83.0916 115.808C83.7956 116.309 84.2703 117.029 84.5156 117.968H82.5476C82.3876 117.531 82.1316 117.189 81.7796 116.944C81.4276 116.699 80.9849 116.576 80.4516 116.576C79.7049 116.576 79.1076 116.843 78.6596 117.376C78.2223 117.899 78.0036 118.635 78.0036 119.584C78.0036 120.533 78.2223 121.275 78.6596 121.808C79.1076 122.341 79.7049 122.608 80.4516 122.608C81.5076 122.608 82.2063 122.144 82.5476 121.216H84.5156C84.2596 122.112 83.7796 122.827 83.0756 123.36C82.3716 123.883 81.4969 124.144 80.4516 124.144C79.6089 124.144 78.8623 123.957 78.2116 123.584C77.5609 123.2 77.0489 122.667 76.6756 121.984C76.3129 121.291 76.1316 120.491 76.1316 119.584ZM90.5733 115.04C91.2453 115.04 91.8427 115.184 92.3653 115.472C92.8987 115.76 93.3147 116.187 93.6133 116.752C93.9227 117.317 94.0773 118 94.0773 118.8V124H92.2693V119.072C92.2693 118.283 92.072 117.68 91.6773 117.264C91.2827 116.837 90.744 116.624 90.0613 116.624C89.3787 116.624 88.8347 116.837 88.4293 117.264C88.0347 117.68 87.8373 118.283 87.8373 119.072V124H86.0133V112.16H87.8373V116.208C88.1467 115.835 88.536 115.547 89.0053 115.344C89.4853 115.141 90.008 115.04 90.5733 115.04ZM104.164 119.376C104.164 119.707 104.143 120.005 104.1 120.272H97.364C97.4173 120.976 97.6786 121.541 98.148 121.968C98.6173 122.395 99.1933 122.608 99.876 122.608C100.857 122.608 101.551 122.197 101.956 121.376H103.924C103.657 122.187 103.172 122.853 102.468 123.376C101.775 123.888 100.911 124.144 99.876 124.144C99.0333 124.144 98.276 123.957 97.604 123.584C96.9426 123.2 96.42 122.667 96.036 121.984C95.6626 121.291 95.476 120.491 95.476 119.584C95.476 118.677 95.6573 117.883 96.02 117.2C96.3933 116.507 96.9106 115.973 97.572 115.6C98.244 115.227 99.012 115.04 99.876 115.04C100.708 115.04 101.449 115.221 102.1 115.584C102.751 115.947 103.257 116.459 103.62 117.12C103.983 117.771 104.164 118.523 104.164 119.376ZM102.26 118.8C102.249 118.128 102.009 117.589 101.54 117.184C101.071 116.779 100.489 116.576 99.796 116.576C99.1666 116.576 98.628 116.779 98.18 117.184C97.732 117.579 97.4653 118.117 97.38 118.8H102.26ZM108.839 124.144C108.146 124.144 107.522 124.021 106.967 123.776C106.423 123.52 105.991 123.179 105.671 122.752C105.351 122.315 105.18 121.829 105.159 121.296H107.047C107.079 121.669 107.255 121.984 107.575 122.24C107.906 122.485 108.316 122.608 108.807 122.608C109.319 122.608 109.714 122.512 109.991 122.32C110.279 122.117 110.423 121.861 110.423 121.552C110.423 121.221 110.263 120.976 109.943 120.816C109.634 120.656 109.138 120.48 108.455 120.288C107.794 120.107 107.255 119.931 106.839 119.76C106.423 119.589 106.06 119.328 105.751 118.976C105.452 118.624 105.303 118.16 105.303 117.584C105.303 117.115 105.442 116.688 105.719 116.304C105.996 115.909 106.391 115.6 106.903 115.376C107.426 115.152 108.023 115.04 108.695 115.04C109.698 115.04 110.503 115.296 111.111 115.808C111.73 116.309 112.06 116.997 112.103 117.872H110.279C110.247 117.477 110.087 117.163 109.799 116.928C109.511 116.693 109.122 116.576 108.631 116.576C108.151 116.576 107.783 116.667 107.527 116.848C107.271 117.029 107.143 117.269 107.143 117.568C107.143 117.803 107.228 118 107.399 118.16C107.57 118.32 107.778 118.448 108.023 118.544C108.268 118.629 108.631 118.741 109.111 118.88C109.751 119.051 110.274 119.227 110.679 119.408C111.095 119.579 111.452 119.835 111.751 120.176C112.05 120.517 112.204 120.971 112.215 121.536C112.215 122.037 112.076 122.485 111.799 122.88C111.522 123.275 111.127 123.584 110.615 123.808C110.114 124.032 109.522 124.144 108.839 124.144Z" fill="#232323"/>
<defs>
<filter id="filter0_b_16_8449" x="-16" y="-16" width="191.333" height="192" filterUnits="userSpaceOnUse" color-interpolation-filters="sRGB">
<feFlood flood-opacity="0" result="BackgroundImageFix"/>
<feGaussianBlur in="BackgroundImageFix" stdDeviation="8"/>
<feComposite in2="SourceAlpha" operator="in" result="effect1_backgroundBlur_16_8449"/>
<feBlend mode="normal" in="SourceGraphic" in2="effect1_backgroundBlur_16_8449" result="shape"/>
</filter>
</defs>
</svg>
